<?xml version="1.0" encoding="UTF-8"?>
<svg id="Calque_2" data-name="Calque 2" xmlns="http://www.w3.org/2000/svg" viewBox="0 0 736 275.16">
  <defs>
    <style>
      .cls-1 {
        fill: #f39339;
      }

      .cls-2, .cls-3 {
        fill: #fff;
      }

      .cls-4 {
        fill: none;
      }

      .cls-5 {
        fill: #46457e;
      }

      .cls-6 {
        fill: #026063;
      }

      .cls-7 {
        font-family: Poppins-Bold, Poppins;
        font-weight: 700;
      }

      .cls-3 {
        font-size: 14px;
      }

      .cls-8 {
        font-family: Poppins-ExtraLight, Poppins;
        font-weight: 200;
      }

      .cls-9 {
        fill: #aa2734;
      }
    </style>
  </defs>
  <g id="Calque_1-2" data-name="Calque 1">
    <g>
      <g>
        <path class="cls-1" d="M227.19,177.69c-12.28-.58-23.12-14.45-36.84-32-4.86-6.21-9.88-12.64-15.42-19.06-4.87-5.64-10.13-11.25-15.22-16.68-17.02-18.17-33.1-35.33-31.08-49.81,2.54-17.94,33.02-30.71,65.59-41.83,21.91-7.27,39.71-12.12,55.44-12.12,8.47,0,15.74,1.41,22.23,4.3l.24.1.19.18c19.94,18.95,22.33,42.73,21.94,65.61-.38,22.21-2.11,33.44-17.97,55.35l-1.1,1.54c-15.6,21.84-31.74,44.43-47.5,44.43-.16,0-.32,0-.48,0Z"/>
        <path class="cls-2" d="M249.66,7.69c7.8,0,15.04,1.24,21.62,4.17,19.78,18.8,21.84,42.53,21.47,64.49-.38,22.24-2.12,32.98-17.68,54.49-15.43,21.58-32.03,45.35-47.39,45.35-.15,0-.29,0-.44,0-15.75-.75-30.21-26.25-51.18-50.54-20.97-24.29-48.45-47.36-45.95-65.31,2.5-17.67,34.99-30.51,64.59-40.62,20-6.64,38.68-12.04,54.96-12.04M249.66,4.69v3-3c-15.93,0-33.87,4.87-55.91,12.19-33.04,11.28-63.97,24.3-66.61,43.04-2.12,15.2,14.2,32.61,31.47,51.05,5.08,5.42,10.33,11.02,15.17,16.64,5.52,6.39,10.53,12.8,15.38,19,13.96,17.85,24.98,31.95,37.92,32.57h.03s.03,0,.03,0c.18,0,.35,0,.53,0,16.53,0,32.9-22.9,48.72-45.05l1.11-1.55c16.1-22.24,17.86-33.64,18.24-56.19.39-23.22-2.05-47.37-22.41-66.72l-.37-.36-.47-.21c-6.68-2.98-14.15-4.43-22.84-4.43h0Z"/>
      </g>
      <g>
        <path class="cls-5" d="M188.34,272.32c-14.78,0-29.27-2.76-46.48-6.9-25.16-6.06-50.7-13.45-62.53-31.05-13.14-19.7-8-49.66,1.2-71.13,10.86-25.38,28.89-44.9,50.79-54.98,10.87-4.9,22.66-7.48,34.1-7.48,12.94,0,24.37,3.28,33.06,9.49,11.82,8.74,18.44,23.51,25.45,39.15,3.01,6.72,6.13,13.67,9.81,20.57,3.31,6.31,7.13,12.59,10.83,18.65,10.01,16.42,19.46,31.93,17.07,45.34-3.28,18.35-28.44,31.43-51.92,36.26-7.04,1.4-14.03,2.08-21.39,2.08Z"/>
        <path class="cls-2" d="M165.43,102.27c12.08,0,23.47,2.99,32.19,9.21,16.36,12.1,22.38,35.92,34.8,59.21,12.16,23.19,30.91,45.34,27.75,63.02s-28.03,30.39-50.75,35.06c-7.2,1.43-14.17,2.05-21.08,2.05-15.15,0-29.97-2.97-46.13-6.86-23.52-5.67-49.94-13.02-61.63-30.43-11.85-17.77-8.89-45.85,1.33-69.71,10.32-24.12,27.88-44.01,50.04-54.21,10.72-4.83,22.39-7.34,33.48-7.34M165.44,99.27v3-3c-11.66,0-23.66,2.63-34.71,7.61-22.26,10.24-40.56,30.04-51.56,55.76-9.35,21.83-14.54,52.36-1.07,72.55,12.13,18.06,37.98,25.55,63.43,31.68,17.31,4.17,31.9,6.95,46.83,6.95,7.45,0,14.54-.69,21.67-2.11,24-4.93,49.71-18.43,53.11-37.47,2.49-13.96-7.1-29.71-17.27-46.38-3.69-6.05-7.5-12.3-10.78-18.56-3.67-6.88-6.77-13.8-9.77-20.5-7.09-15.82-13.79-30.77-25.9-39.73-8.99-6.42-20.72-9.8-33.97-9.8h0Z"/>
      </g>
      <g>
        <path class="cls-9" d="M90.51,173.62c-18.58,0-35.29-5.29-47.07-14.89-17.45-14.23-23.58-37.77-30.07-62.7-.46-1.78-.93-3.58-1.4-5.38-.66-2.5-1.35-5.01-2.03-7.52C3.44,59.22-3.29,34.48,6.25,19.64,13.58,8.11,31.95,1.5,56.64,1.5c5.03,0,10.15.29,15.23.85,26.01,2.89,48.35,12.66,70.33,30.74,13.83,11.7,45.59,42.25,42.21,73.4-2.73,27.89-32.6,52.06-60.7,61.51-10.87,3.73-22.04,5.62-33.2,5.62Z"/>
        <path class="cls-2" d="M56.64,3c5.05,0,10.12.29,15.06.84,25.34,2.82,47.3,12.11,69.55,30.41,21.96,18.58,44.49,46.18,41.67,72.08-2.53,25.9-30.41,50.4-59.69,60.25-10.95,3.75-22.1,5.54-32.72,5.54-18.05,0-34.6-5.15-46.12-14.55-18.3-14.92-23.93-40.55-30.97-67.29C6.38,63.81-2.63,36.22,7.51,20.45,15.44,7.99,35.79,3,56.64,3M56.64,0C31.43,0,12.6,6.87,4.98,18.84c-9.89,15.39-3.08,40.45,3.52,64.69.68,2.51,1.36,5.02,2.03,7.52.47,1.79.94,3.58,1.4,5.36,6.55,25.17,12.74,48.94,30.57,63.48,12.04,9.82,29.09,15.22,48.02,15.22,11.32,0,22.66-1.92,33.69-5.7,28.54-9.61,58.91-34.26,61.7-62.8,3.46-31.83-28.72-62.82-42.72-74.66C120.94,13.66,98.34,3.78,72.04.86c-5.13-.57-10.31-.86-15.39-.86h0Z"/>
      </g>
      <path class="cls-4" d="M177.78,173.06l-10.48-52.47-33.34-42.09,10.81,52.47,33.01,42.09ZM152.83,124.55c.63-1.71,2.53-2.59,4.24-1.97l.06.02c1.71.63,2.59,2.53,1.97,4.24s-2.53,2.59-4.24,1.97l-.06-.02c-1.71-.63-2.59-2.53-1.97-4.24Z"/>
      <path class="cls-4" d="M125.5,198.65l2.83-7.72c.63-1.71,2.53-2.59,4.24-1.97s2.59,2.53,1.97,4.24l-2.83,7.72c19.55,6.26,39.91,4.48,57.33-3.61,17.42-8.09,31.91-22.48,39.75-41.46l-7.72-2.83c-1.71-.63-2.59-2.53-1.97-4.24s2.53-2.59,4.24-1.97l7.72,2.83c6.26-19.55,4.48-39.91-3.61-57.33-8.09-17.42-22.48-31.91-41.46-39.75l-2.83,7.72c-.63,1.71-2.53,2.59-4.24,1.97s-2.59-2.53-1.97-4.24l2.83-7.72c-19.55-6.26-39.91-4.48-57.33,3.61-17.42,8.09-31.91,22.48-39.75,41.46l7.72,2.83c1.71.63,2.59,2.53,1.97,4.24s-2.53,2.59-4.24,1.97l-7.72-2.83c-6.26,19.55-4.48,39.91,3.61,57.33,8.09,17.42,22.48,31.91,41.46,39.75ZM127.27,62.34c1.26-.25,2.49.24,3.24,1.18l42.45,53.58c.35.44.57.94.67,1.46l13.33,66.75c.35,1.79-.8,3.52-2.58,3.87-1.31.26-2.6-.29-3.32-1.31l-41.93-53.47c-.33-.41-.54-.88-.64-1.38v.02s-13.77-66.82-13.77-66.82c-.36-1.78.79-3.52,2.57-3.89Z"/>
      <path class="cls-2" d="M143.3,139.81v-.02c.3.4.7.74,1.17.97l60.87,30.21c1.09.61,2.5.55,3.56-.25,1.45-1.09,1.75-3.15.66-4.61l-40.76-54.51c-.31-.43-.72-.79-1.23-1.03l-61.38-30.09c-1.09-.52-2.41-.44-3.43.33-1.45,1.1-1.74,3.16-.64,4.62l41.19,54.38Z"/>
      <path class="cls-2" d="M69.99,168.39l-.24-.49c-.81-1.62-2.79-2.29-4.42-1.49-1.62.81-2.29,2.79-1.49,4.42l.24.49c.81,1.62,2.79,2.29,4.42,1.49,1.62-.81,2.29-2.79,1.49-4.42Z"/>
      <path class="cls-2" d="M126.22,206.04c21.46,7.85,44.86,6.91,65.6-2.72,19.86-9.22,36.2-26,44.34-48.17,7.85-21.46,6.91-44.86-2.72-65.6-9.63-20.74-26.88-36.55-48.35-44.41-22.19-8.09-45.56-6.43-65.42,2.78-19.86,9.22-36.2,26-44.34,48.17-7.85,21.46-6.91,44.86,2.72,65.6,9.22,19.86,26,36.2,48.17,44.34ZM80.43,101.58l7.72,2.83c1.71.63,3.61-.25,4.24-1.97s-.25-3.61-1.97-4.24l-7.72-2.83c7.84-18.98,22.34-33.38,39.75-41.46,17.42-8.08,37.77-9.86,57.33-3.61l-2.83,7.72c-.63,1.71.25,3.61,1.97,4.24s3.61-.25,4.24-1.97l2.83-7.72c18.98,7.84,33.38,22.34,41.46,39.75,8.08,17.42,9.86,37.77,3.61,57.33l-7.72-2.83c-1.71-.63-3.61.25-4.24,1.97s.25,3.61,1.97,4.24l7.72,2.83c-7.84,18.98-22.34,33.38-39.75,41.46-17.42,8.08-37.77,9.86-57.33,3.61l2.83-7.72c.63-1.71-.25-3.61-1.97-4.24s-3.61.25-4.24,1.97l-2.83,7.72c-18.98-7.84-33.38-22.34-41.46-39.75-8.08-17.42-9.86-37.77-3.61-57.33Z"/>
      <path class="cls-2" d="M244.01,162.88c-9.56,22.7-27,39.93-47.92,49.64-22.23,10.33-48.42,12.17-73.27,3.08-9.89-3.62-18.83-8.7-26.66-14.91-8.11-6.44-15.02-14.08-20.57-22.56-1-1.53-3.04-1.96-4.57-.96-1.53,1-1.96,3.04-.96,4.57,5.94,9.07,13.33,17.25,22,24.13,8.36,6.63,17.91,12.07,28.48,15.94,26.56,9.72,54.56,7.75,78.33-3.29,21.07-9.79,38.82-26.69,49.36-48.89h-4.23v-6.75Z"/>
      <path class="cls-2" d="M248.38,81.91c-11.09-23.51-31.09-42.85-57.44-52.49-26.56-9.72-54.56-7.75-78.33,3.29-23.78,11.04-43.35,31.15-53.06,57.71-4.17,11.41-6.18,23.11-6.25,34.64-.07,11.96,1.97,23.7,5.88,34.72.61,1.72,2.5,2.62,4.21,2.01,1.72-.61,2.62-2.5,2.01-4.21h0c-3.67-10.34-5.57-21.32-5.52-32.47.06-10.74,1.95-21.69,5.87-32.4,9.09-24.85,27.4-43.66,49.64-53.98,22.23-10.33,48.42-12.17,73.27-3.08s43.66,27.4,53.98,49.64c.48,1.02.93,2.06,1.37,3.1v-6.47h4.37Z"/>
      <path class="cls-2" d="M692.14,81.91H248.38c.09.19.19.38.28.58,11.04,23.77,13.01,51.76,3.29,78.33-1.11,3.03-2.35,5.97-3.7,8.82h443.9c24.23,0,43.86-19.64,43.86-43.86h0c0-24.23-19.64-43.86-43.86-43.86Z"/>
      <path class="cls-2" d="M248.66,82.48c-.09-.19-.18-.38-.28-.58h-4.37v6.47c9.1,21.54,10.38,46.47,1.71,70.17-.54,1.47-1.11,2.91-1.71,4.34v6.75h4.23c1.36-2.86,2.6-5.79,3.7-8.82,9.72-26.57,7.75-54.56-3.29-78.33Z"/>
      <path class="cls-6" d="M276.06,105.63l.5-1.9c.53-1.03,1.47-3.36,2.8-6.98,1.33-3.62,2-5.66,2-6.12s.27-.7.8-.7c.17-.17.43-.25.8-.25l.8.8c.37.33.55.78.55,1.35s-.02.94-.05,1.12c-.03.18-.07.35-.1.5-.03.15-.12.38-.25.67-.13.3-.25.57-.35.8-.1.23-.3.66-.6,1.28-.3.62-.54,1.14-.73,1.57-.18.43-.39.89-.62,1.38-.23.48-.42.87-.55,1.15-.13.28-.2.46-.2.53s-.02.17-.07.32c-.05.15-.12.35-.23.6s-.23.56-.4.92c-1.33,2.93-2,4.56-2,4.88s-.08.56-.25.73c-.17,0-.25.13-.25.4v.15c0,.33-.27,1.22-.8,2.65-1.43,4.83-2.15,7.71-2.15,8.62s-.02,1.49-.08,1.73c-.05.23-.19.42-.42.55-.97.27-1.62-.13-1.98-1.2-.35-1.07-.32-2.53.08-4.4.37-.97.55-1.67.55-2.1.1-.63.44-1.77,1.02-3.42.58-1.65.96-2.64,1.12-2.98.33,0,.5-.37.5-1.1s.18-1.25.55-1.55Z"/>
      <path class="cls-6" d="M281.03,119.95c-.22-.22-.33-.43-.33-.65s-.08-.42-.25-.62c-.57-.57.33-3.02,2.7-7.35.2-.2.46-.55.77-1.05.32-.5.52-.78.62-.85,0-.13.05-.26.15-.38.1-.12.22-.17.35-.17v-.3c0-.3.55-1.03,1.65-2.2,2.93-3.07,5.2-3.97,6.8-2.7.2.27,1.58,1.53,4.15,3.8l-.9,2.5c-.73,2.17-.52,4.2.65,6.1.17.37.5.72,1,1.05.5.33,1,.53,1.5.6.73.13,1.1.52,1.1,1.15s-.3,1.02-.9,1.15c-2.23.3-4.13-1.07-5.7-4.1-.47-.63-.77-1.37-.9-2.2-.5.7-1.03,1.33-1.6,1.9-4.7,4.73-8.17,6.38-10.4,4.95-.1-.2-.26-.41-.48-.62ZM294.01,108.13c-.6-1.33-1.27-2-2-2s-1.85.88-3.35,2.62-2.87,3.81-4.1,6.17l-1.25,2.85c0,.37.43.34,1.27-.07.85-.42,1.56-.86,2.12-1.33,2.87-2.47,4.93-4.62,6.2-6.45l1.1-1.8Z"/>
      <path class="cls-6" d="M329.21,88.73s.2-.02.5-.05c.8-.07,1.53-.08,2.2-.05,2.37.2,4.23.88,5.6,2.02,1.37,1.15,2.03,2.84,2,5.08-.07.87-.55,2.05-1.45,3.55-.9,1.5-2,2.83-3.3,4-1.3,1.17-2.23,1.88-2.8,2.15.03.03.65.27,1.85.7,2.6.97,4.23,2.8,4.9,5.5.33,1.47-.03,3.42-1.1,5.85l-.75,1.1c-.03.13-.33.64-.9,1.52-.57.88-1.07,1.59-1.5,2.12-2.2,1.87-4.02,3.07-5.45,3.6-1.37.6-2.97.92-4.8.95-1.83.03-3.18-.23-4.05-.8-1.43-.9-2.28-1.83-2.55-2.77-.27-.95.07-1.71,1-2.28.2-.13.6-.14,1.2-.02.6.12,1.03.31,1.3.58,1.27,1.17,3.07,1.45,5.4.85,1.3-.4,2.33-.9,3.08-1.5.75-.6,1.64-1.53,2.67-2.8.97-1.3,1.57-2.61,1.8-3.92.23-1.32.08-2.23-.45-2.73-1.77-2.47-4.42-3.23-7.95-2.3-.67.1-1.32.22-1.97.38-.65.15-1.1.24-1.35.27-.25.03-.38.1-.4.2-.02.1-.16.4-.43.9-.33.63-1.11,2.67-2.32,6.12-1.22,3.45-2.18,5.21-2.88,5.27-.37.03-.82-.33-1.35-1.1-.03-.07-.17-.27-.4-.62-.23-.35-.4-.65-.5-.9-.1-.25-.15-.46-.15-.62-.07-.37.02-.76.25-1.18.23-.42.48-1.12.75-2.12.43-1.3,1.69-4.53,3.78-9.7,2.08-5.17,3.62-8.88,4.62-11.15,1-2.27,1.33-3.45,1-3.55,0-.1-.05-.25-.15-.45-.1-.2-.13-.35-.1-.45,0-.2.59-.5,1.77-.9,1.18-.4,1.99-.57,2.42-.5.63,0,.95-.08.95-.25ZM332.63,92.73c-.95-.17-1.86-.13-2.73.1-.87.23-1.3.65-1.3,1.25s-.27,1.17-.8,1.7c-.07.27-.27.6-.6,1,0,.07-.1.27-.3.6-.73,1.37-1.28,2.55-1.65,3.55-1,2.37-1.5,3.8-1.5,4.3,2.07-.4,3.45-.73,4.15-1,.87-.5,1.43-.88,1.7-1.15,2.1-1.97,3.57-3.73,4.4-5.3.73-1.17,1.14-2.03,1.23-2.6.08-.57-.09-1.05-.52-1.45-.43-.5-1.12-.83-2.08-1Z"/>
      <path class="cls-6" d="M346.06,106.08c1.67-1.43,3.17-2.3,4.5-2.6,2-.47,3.4-.28,4.2.55,1.3.57,2.05,1.75,2.25,3.55.27,2.77-.65,5.67-2.75,8.7-1.23,1.8-2.93,3.35-5.1,4.65-.87.6-2.4.97-4.6,1.1-.57,0-1.22-.32-1.95-.95-1.5-1.57-2.15-2.95-1.95-4.15l.1-1.15c-.17-.17-.21-.3-.12-.4.08-.1.14-.17.17-.2.2,0,.27-.16.2-.47-.07-.32.05-.93.35-1.83.3-.9.68-1.73,1.15-2.5,1.13-1.87,2.32-3.3,3.55-4.3ZM351.73,112.6c.05-.12.14-.37.27-.75.13-.38.26-.68.38-.88.12-.2.18-.71.2-1.52.02-.82-.11-1.31-.38-1.48-.37-.17-.67-.22-.9-.15-.23.07-.62.28-1.15.65-2.53,2.13-4.05,4.42-4.55,6.85-.1.83,0,1.46.27,1.88.28.42.76.52,1.42.32.67-.2,1.27-.56,1.8-1.07.53-.52.88-.86,1.05-1.03.17-.17.31-.32.42-.45.12-.13.23-.33.35-.58.12-.25.21-.43.27-.55.07-.12.16-.33.28-.62.12-.3.2-.51.25-.62Z"/>
      <path class="cls-6" d="M363.01,116.48c.77,0,1.73-.57,2.88-1.7,1.15-1.13,2.36-2.73,3.62-4.77,1.27-2.05,1.97-3.23,2.1-3.52.13-.3.29-.63.48-1,.18-.37.32-.62.4-.77.08-.15.19-.33.32-.53.23-.3.47-.48.7-.55h1.15c.2.03.43.18.7.45.83.4,1.25.78,1.25,1.15-.1.23-.32.74-.65,1.52-.33.78-.53,1.24-.6,1.38-1.77,3.83-2.77,6.5-3,8-.37,2.17-.02,3.73,1.05,4.7.53.37.1.88-1.3,1.55-.37.2-.6.3-.7.3-.53.27-1.22-.13-2.05-1.2-.47-.73-.69-1.69-.68-2.88.02-1.18-.02-1.79-.12-1.83-.1-.03-.77.53-2,1.7-2.07,2-3.47,2.98-4.2,2.95-.37,0-.88-.32-1.55-.97-.67-.65-1.12-1.28-1.35-1.88-.3-1.27-.13-3.14.5-5.62.63-2.48,1.45-4.68,2.45-6.6,1-1.92,1.83-2.84,2.5-2.77,1.03.13,1.85.93,2.45,2.4.23.43.15.83-.25,1.2-.5.67-1.13,1.75-1.9,3.25-.77,1.5-1.38,2.88-1.85,4.15-.47,1.27-.58,1.9-.35,1.9Z"/>
      <path class="cls-6" d="M387.91,101.58c.5-.23,1.15-.35,1.95-.35s1.32.07,1.55.2c.2-.07.33-.1.4-.1.4,0,.92.33,1.55,1,.63.67,1.03,1.2,1.2,1.6,0,2.43-.2,3.65-.6,3.65-.17,0-.25.1-.25.3,0,.47-.41.98-1.23,1.55-.82.57-1.56.85-2.23.85-.37-.1-.73-.32-1.1-.67-.37-.35-.55-.71-.55-1.08,0-.03.34-.45,1.02-1.25.68-.8,1.02-1.52,1.02-2.15,0-.27-.28-.4-.85-.4-1.83.83-3.15,1.62-3.95,2.35-.2.4-.4.6-.6.6,0-.03-.02-.05-.08-.05s-.24.17-.57.5c-.33.33-.68.77-1.02,1.33-.35.55-.56,1.04-.62,1.47l-.1.15v.25c-.03.07-.05.2-.05.4,0,.53.71,1.32,2.12,2.38,1.42,1.05,2.4,1.85,2.95,2.4s.89,1.04,1.02,1.48c.3.6.45,1.13.45,1.6,0,1.13-.59,2.01-1.77,2.62-1.18.62-2.59.92-4.23.92s-3.05-.35-4.25-1.05c-1.2-.7-1.81-1.31-1.83-1.83-.02-.52.16-.83.52-.92.33-.27.8-.33,1.4-.2.7.13,1.57.27,2.6.4.67,0,1.29-.07,1.88-.2.58-.13.88-.27.88-.4s-.13-.32-.4-.55c-.27-.23-.55-.35-.85-.35,0-.13-.66-.69-1.97-1.67-1.32-.98-1.98-1.62-1.98-1.93,0-.03.02-.07.05-.1v-.25c-.23,0-.45-.32-.65-.95-.2-.63-.3-1.25-.3-1.85,0-1.73,1.04-3.62,3.12-5.67,2.08-2.05,4.19-3.39,6.32-4.02Z"/>
      <path class="cls-6" d="M410.33,102.13c.42.33.82.92,1.22,1.75.4.83.6,1.45.6,1.85,0,.43-.4,1.27-1.2,2.5-.43.87-.66,1.34-.68,1.42-.02.08-.05.18-.1.27-.05.1-.08.16-.1.18-.02.02-.05.06-.1.12-.05.07-.09.1-.12.1s-.08.02-.12.05c-.05.03-.1.03-.15,0-.05-.03-.24-.04-.58-.02-.33.02-.73-.23-1.2-.73s-.7-1-.7-1.5.15-.98.45-1.45c.3-.47.45-.74.45-.82s-.15-.12-.45-.12c-.8,0-1.91.48-3.32,1.45-1.42.97-2.12,2.04-2.12,3.23s.3,2.26.9,3.23c.27.27.66,1.06,1.17,2.38.52,1.32.78,2.46.78,3.42s-.44,1.75-1.33,2.35c-.88.6-2.1.9-3.65.9s-2.92-.5-4.1-1.5c-1.18-1-1.77-2.03-1.77-3.1,0-.57.23-.85.7-.85.13.03.6.29,1.4.77.8.48,1.47.73,2,.73,1.33,0,2.07-.37,2.2-1.1,0-.47-.23-1.17-.7-2.1-1.17-1.73-1.82-4.03-1.95-6.9,0-1.17,1.15-2.58,3.45-4.25,2.3-1.67,4.22-2.58,5.75-2.75,1.83,0,2.96.17,3.38.5Z"/>
      <path class="cls-6" d="M413.05,118.25c.03-.38.05-.66.05-.83s-.03-.37-.1-.6c-.2-.17-.26-.3-.17-.4.08-.1.12-.17.12-.2.27-.07.3-.25.1-.55-.1-.27-.04-.88.18-1.82.22-.95.48-1.79.77-2.52.93-2.13,1.93-3.77,3-4.9,1.57-1.77,2.88-2.85,3.95-3.25,1.47-.6,2.75-.48,3.85.35,1.9.53,3.05,1.57,3.45,3.1.63,2.53.15,5.37-1.45,8.5-1.13,2.27-2.42,4.01-3.85,5.23-1.43,1.22-3.22,2.04-5.35,2.48-.57.07-1.25-.15-2.05-.65-.73-.57-1.34-1.27-1.82-2.1-.48-.83-.71-1.44-.68-1.83ZM421.95,115.28c1.33-1.87,1.98-3.93,1.95-6.2-.03-.9-.18-1.38-.45-1.45-.9-.37-1.87.03-2.9,1.2-.77.83-1.33,1.65-1.7,2.45-.37.8-.77,2.08-1.23,3.83s-.33,2.82.38,3.23c.9.53,2.22-.48,3.95-3.05Z"/>
      <path class="cls-6" d="M430.1,117.08c.83-4.03,1.45-6.52,1.85-7.45.2-.63.38-1.22.55-1.75,1-3.23,1.93-5.42,2.8-6.55.03-.07.08-.19.15-.38.07-.18.12-.31.15-.38,0-.53.12-1,.35-1.4.4-.6.7-1.18.9-1.75l1.4-2.85c.33-.97.87-1.6,1.6-1.9l-.05-.05c.17-.27.47-.5.92-.7.45-.2.84-.3,1.17-.3.97,0,1.45.5,1.45,1.5,0,.87-.13,1.47-.4,1.8h.05c-.4,1.13-.69,1.8-.88,2-.18.2-.92,1.55-2.23,4.05-1.53,2.97-2.43,4.97-2.7,6-.07.13-.19.42-.38.85-.18.43-.29.68-.33.75l-.8,3.1-.2,1.05c-.53,1.47-.83,2.37-.9,2.7-.17.47-.26.77-.27.9-.02.13-.14.53-.38,1.2-.5,1.63-.78,3.02-.85,4.15l-.05.2c-.1.73-.31,1.28-.62,1.65-.32.37-.73.48-1.23.35-.97-.33-1.48-1.12-1.52-2.38-.05-1.25.09-2.73.42-4.42Z"/>
      <path class="cls-6" d="M449.75,102.53c1.97,0,3.4.48,4.3,1.43.9.95,1.35,1.84,1.35,2.67v.4c0,.7-.47,1.85-1.4,3.45-.47.83-1.18,1.57-2.15,2.23-.97.65-1.93.99-2.9,1.02-.97.03-1.89-.02-2.78-.18-.88-.15-1.42-.22-1.62-.22s-.38.12-.55.35c-.23.37-.35,1.05-.35,2.05.1.93.36,1.58.77,1.95.42.37.93.55,1.53.55s1.17-.12,1.7-.35c.53-.23,1.16-.65,1.88-1.25.72-.6,1.27-.9,1.68-.9s.8.2,1.2.6c.4.4.62.78.65,1.15-.1.77-.88,1.77-2.32,3.02-1.45,1.25-3.09,1.88-4.93,1.88s-3.33-.53-4.5-1.6c-1.17-1.07-1.75-2.58-1.75-4.55,0-.77.04-1.58.12-2.45.08-.87.38-1.93.88-3.2.5-1.27,1.3-2.63,2.4-4.1,1.1-1.47,2.28-2.49,3.55-3.08,1.27-.58,2.35-.88,3.25-.88ZM449.4,106.18c-.43,0-1.06.36-1.88,1.08-.82.72-1.52,1.54-2.12,2.48.07.4.62.6,1.65.6s1.69-.08,1.98-.23c.28-.15.77-.57,1.45-1.25.68-.68,1.04-1.16,1.07-1.43,0-.73-.53-1.15-1.6-1.25h-.55Z"/>
      <path class="cls-6" d="M471.08,106.93c.35-.9.52-1.58.52-2.05s.19-.83.58-1.1c.38-.27.76-.37,1.12-.3.93.2,1.42.8,1.45,1.8.03.53-.1,1.18-.4,1.95-1.47,3.6-2.2,5.57-2.2,5.9.03.13.33-.04.9-.52.57-.48,1.16-1.01,1.77-1.58.62-.57,1.62-1.28,3-2.15,1.38-.87,2.44-1.42,3.18-1.65.2,0,.37.02.5.05.13.03.24.06.32.08.08.02.2.08.35.2.15.12.26.19.33.23.27.3.57.62.92.98s.42.96.23,1.83l-1,3.15c2.5-2.13,4.17-3.42,5-3.85,1.63-.83,2.85-.65,3.65.55.4.4.61.77.62,1.1.02.33.02.55.02.65v1.7c.2,2.6.36,3.98.48,4.12.12.15.55.28,1.3.4.75.12,1.16.36,1.23.73.07.37-.15.72-.65,1.05-.9.53-2,.56-3.3.08-1.3-.48-1.93-2.01-1.9-4.58.07-1,.09-1.78.08-2.35-.02-.57-.14-.85-.38-.85-.43,0-1.37.57-2.8,1.7-1.77,1.43-3.33,2.93-4.7,4.5-.17.23-.3.39-.4.48-.1.08-.23.2-.4.35-.17.15-.3.24-.4.27-.1.03-.23.07-.4.1-.23.07-.72-.2-1.45-.8-.3-.27-.38-.65-.25-1.15l1.15-3.3c1.07-2.57,1.48-3.85,1.25-3.85-.3.03-.72.19-1.25.48-.53.28-.87.56-1,.83-.1,0-.33.18-.7.55-.37.37-.67.62-.9.75-.17.27-.72.86-1.65,1.77-.93.92-1.56,1.52-1.88,1.8-.32.28-.7.71-1.15,1.27-.45.57-.82,1.04-1.1,1.42-.28.38-.46.58-.52.58-1.03,0-1.68-.5-1.95-1.5-.23-.5-.25-1.22-.05-2.15.2-.93.38-1.73.55-2.4.17-.67.29-1.21.38-1.62.08-.42.16-.77.23-1.07.07-.3.12-.51.15-.62.03-.12.11-.34.23-.68.12-.33.27-.73.48-1.2.2-.47.47-1.15.82-2.05Z"/>
      <path class="cls-6" d="M505.23,118.1c.08-.05.13-.08.15-.08.02,0,.05-.02.1-.05.05-.03.08-.07.08-.1.23-.2.52-.48.88-.83.35-.35.61-.52.77-.52s.34.08.52.25c.18.17.31.27.38.3.53,0,.46.43-.22,1.3-.68.87-1.53,1.62-2.53,2.25-1.07.93-2.32,1.27-3.77,1.02-1.45-.25-2.61-.98-3.48-2.17-1.03-1.3-1.42-3.38-1.15-6.25.13-1.87.93-3.77,2.4-5.73s3.02-3.24,4.65-3.88c.47-.3.9-.46,1.3-.48.4-.02,1.08.04,2.02.18.95.13,1.69.53,2.23,1.2.83.83,1.25,1.8,1.25,2.9-.13.8-.65,1.72-1.55,2.75-.9,1.03-1.98,1.87-3.25,2.5-1.87.57-3.38.45-4.55-.35-.6-.23-1.01-.18-1.23.15-.22.33-.41,1.17-.57,2.5-.27,2.3.28,3.57,1.65,3.8.13.03.33.08.6.12.27.05.44.08.52.1.08.02.23.03.42.05.2.02.37,0,.5-.02.27-.07.53-.17.78-.32.25-.15.44-.26.57-.33.27-.13.44-.23.52-.27ZM505.3,110.03c.57-.23,1.14-.65,1.73-1.25.58-.6.88-1.12.88-1.57s-.23-.82-.7-1.1c-.47-.28-1.02-.34-1.65-.18-.63.17-1.28.55-1.95,1.15-.67.6-1.22,1.19-1.65,1.77-.43.58-.6.92-.5,1.02.13.27.67.42,1.6.45.93.03,1.68-.07,2.25-.3ZM512.35,93.13c.57-.33,1.25.13,2.05,1.4.13.33-.1.8-.7,1.4-.6.6-1.34,1.26-2.23,1.98-.88.72-1.46,1.26-1.72,1.62-.33.57-.59.88-.78.95-.18.07-.47-.03-.88-.3-.23-.2-.41-.52-.52-.97-.12-.45-.15-.8-.1-1.05.05-.25.76-1.11,2.12-2.57,1.37-1.47,2.28-2.28,2.75-2.45Z"/>
      <path class="cls-6" d="M514.43,104.13c-.15-.2-.23-.41-.23-.62s.14-.52.43-.9c.28-.38.53-.57.75-.55.22.02.72.02,1.5,0,.78-.02,1.31-.07,1.57-.17.27-.1.45-.28.55-.55.3-.83.72-1.73,1.25-2.7,1-1.93,1.8-3.15,2.4-3.65s1.32-.4,2.15.3c.27.4.41.66.42.77.02.12-.09.41-.32.88-.23.47-.58,1.08-1.02,1.83-.45.75-.76,1.29-.93,1.62-.57.8-.65,1.23-.25,1.3.4.07,1.39-.02,2.98-.27,1.58-.25,2.46.21,2.62,1.38.1.8.02,1.28-.25,1.45-.27.17-1.03.25-2.3.25-1.07.17-2.08.26-3.03.27-.95.02-1.52.06-1.72.12-.4.1-.72.42-.95.95-.1.07-.22.25-.35.55-.2.4-.62,1.18-1.25,2.35-.9,2.67-1.49,4.91-1.77,6.73-.28,1.82-.34,2.88-.17,3.2.17.32.75.52,1.75.62,1.7.2,3.53-.28,5.5-1.45l1.35-.8c.33-.53.68-.37,1.05.5,0,.37-.02.65-.08.85-.05.2-.23.48-.55.85-.32.37-.81.73-1.48,1.1-2.53,1.6-4.97,2.17-7.3,1.7-.53-.1-1.08-.46-1.62-1.07-.55-.62-.91-1.19-1.08-1.73l-.25-.4c-.2-.17-.27-1.03-.2-2.58.07-1.55.18-2.65.35-3.3.17-.65.47-1.56.9-2.73.43-1.17.7-1.93.8-2.3l1.35-2.9-2-.55c-.23-.03-.43-.15-.58-.35Z"/>
      <path class="cls-6" d="M539.4,105.98c1.6-1.13,2.81-1.7,3.62-1.7s1.39.32,1.73.95c.6,1.07.57,2.02-.1,2.85-.3.37-.68.65-1.15.85-.47.2-.8.3-1,.3s-.45-.15-.75-.45-.47-.55-.5-.75c0-.17-.47.12-1.4.88-.93.75-1.55,1.27-1.85,1.58-.77.93-2.12,3.33-4.05,7.2-.2.4-.4.88-.6,1.45-.37,1.03-.65,1.58-.85,1.65-.2.07-.52.03-.95-.1-1.7-.53-1.77-1.93-.2-4.2.23-.47.68-1.68,1.35-3.62.67-1.95,1.05-3.04,1.15-3.27.07-.57.03-.97-.1-1.2-.17-.3-.43-.45-.8-.45s-.6-.02-.7-.05c-.27-.03-.4-.38-.4-1.05.07-.63.45-1.17,1.15-1.6,1.2-.63,2.15-.65,2.85-.05.43.3.65,1.4.65,3.3,1.73-1.47,2.7-2.3,2.9-2.5Z"/>
      <path class="cls-6" d="M549.25,110.38c2.23-3.7,4.83-5.9,7.8-6.6.7-.2,1.21-.28,1.52-.25.32.03.71.3,1.17.8.77.33,1.33.73,1.68,1.2.35.47.57,1.15.67,2.05.27,2.6-.6,5.33-2.6,8.2-.77,1.1-1.48,1.94-2.15,2.52-.67.58-1.55,1.21-2.65,1.88-1.3.87-2.6,1.35-3.9,1.45-.57,0-1.22-.32-1.95-.95-1.27-1.3-1.8-2.53-1.6-3.7l.1-1.15c-.17-.17-.21-.3-.12-.4.08-.1.14-.17.17-.2.2,0,.27-.16.2-.48-.07-.32.07-.93.4-1.85.33-.92.75-1.76,1.25-2.52ZM558.9,110.73c.2-.53.29-1.26.28-2.18-.02-.92-.16-1.44-.43-1.57-.93-.53-2.03-.28-3.3.75-1.67,1.43-3.32,3.97-4.95,7.6-.7,1.67-.65,2.83.15,3.5,1,.83,2.65,0,4.95-2.5,1.43-1.63,2.53-3.5,3.3-5.6Z"/>
      <path class="cls-6" d="M561.7,132.65c-.37-.45-.55-.88-.55-1.27s.33-1.99,1-4.77c.67-2.78,1.16-4.62,1.48-5.5.32-.88.58-1.58.77-2.08.57-1.43,1.03-2.77,1.4-4,.37-1.23,1.02-3,1.95-5.3.87-2.13,1.82-4.62,2.85-7.45.23-.6.64-.98,1.23-1.15.58-.17,1.09.08,1.52.75.23.4.08,1.25-.45,2.55l-.35,1,1.8-.4c2.83,0,4.45.15,4.85.45.4.3.75.7,1.05,1.2.57.6.9,1.1,1,1.5.27,1.1.08,2.33-.58,3.7-.65,1.37-1.49,2.38-2.52,3.05l-1.3.65c-.07.27-.83.69-2.27,1.27-1.45.58-2.68.94-3.68,1.07-1,.13-1.63.12-1.9-.05-.63-.13-.95-.1-.95.1-.83,2.47-1.52,4.72-2.05,6.75-1.83,5.5-2.9,8.43-3.2,8.8-.37-.13-.73-.42-1.1-.88ZM578.25,108.53c-.33-.57-1.02-.82-2.08-.75-1.05.07-2.27.48-3.67,1.25-.87.33-1.48.88-1.85,1.65-1.17,2.37-1.7,3.83-1.6,4.4.17.43,1.15.29,2.95-.43,1.8-.72,3.22-1.51,4.25-2.38,1.83-2.1,2.5-3.35,2-3.75Z"/>
      <path class="cls-6" d="M600.25,106.88c0,.37.17.55.5.55.37.03-.13.55-1.5,1.55-.83.53-1.27.86-1.3.98-.03.12-.02.29.05.52.7,1.6-.02,3.6-2.18,6-2.15,2.4-4.38,3.73-6.67,4-.7.13-1.14.18-1.33.15-.18-.03-.46-.23-.82-.6-.73-.37-1.31-.89-1.73-1.57-.42-.68-.59-1.29-.52-1.83.23-2.4,1.09-4.96,2.57-7.67,1.48-2.72,2.96-4.33,4.43-4.83,1.6-.63,2.66-.44,3.17.58.52,1.02.41,1.66-.32,1.92-.37,0-.55.15-.55.45.23.1.92.07,2.05-.1,1.13-.17,1.83-.38,2.1-.65.27-.13.68-.13,1.23,0,.55.13.83.32.83.55ZM594.65,109.98c-.43,0-1.07-.33-1.9-1l-.8-1-.85.85c-.8.8-1.62,2.11-2.45,3.92-.83,1.82-1.28,3.09-1.35,3.83-.07.73,0,1.19.18,1.38.18.18.42.28.7.3.28.02.83-.17,1.62-.58.43-.43.78-.7,1.05-.8.5,0,1.43-.88,2.8-2.65,1.47-1.63,2.08-2.88,1.85-3.75,0-.1-.12-.19-.35-.27-.23-.08-.4-.16-.5-.23Z"/>
      <path class="cls-6" d="M604.9,105.63l.5-1.9c.53-1.03,1.47-3.36,2.8-6.98,1.33-3.62,2-5.66,2-6.12s.27-.7.8-.7c.17-.17.43-.25.8-.25l.8.8c.37.33.55.78.55,1.35s-.02.94-.05,1.12c-.03.18-.07.35-.1.5-.03.15-.12.38-.25.67-.13.3-.25.57-.35.8-.1.23-.3.66-.6,1.28-.3.62-.54,1.14-.73,1.57-.18.43-.39.89-.62,1.38-.23.48-.42.87-.55,1.15-.13.28-.2.46-.2.53s-.02.17-.07.32c-.05.15-.12.35-.23.6s-.23.56-.4.92c-1.33,2.93-2,4.56-2,4.88s-.08.56-.25.73c-.17,0-.25.13-.25.4v.15c0,.33-.27,1.22-.8,2.65-1.43,4.83-2.15,7.71-2.15,8.62s-.02,1.49-.08,1.73c-.05.23-.19.42-.42.55-.97.27-1.62-.13-1.98-1.2-.35-1.07-.32-2.53.08-4.4.37-.97.55-1.67.55-2.1.1-.63.44-1.77,1.02-3.42.58-1.65.96-2.64,1.12-2.98.33,0,.5-.37.5-1.1s.18-1.25.55-1.55Z"/>
      <path class="cls-6" d="M610.2,119.68l-.25-1c-.23-.13-.37-.27-.4-.42s.02-.41.15-.77c.43-.77,1.2-2.51,2.3-5.23,1.1-2.72,1.72-4.33,1.85-4.83,0-.33.17-.67.5-1,.57-.43,1.1-.15,1.6.85.23.43.35.87.35,1.3s-.37,1.6-1.1,3.5c-.83,2.03-1.64,3.83-2.43,5.4-.78,1.57-1.29,2.37-1.52,2.4-.07.03-.17.05-.3.05l-.75-.25ZM616.6,95.68c.47,0,.87.08,1.2.25.23.53.66,1.17,1.28,1.9.62.73.92,1.23.92,1.5,0,.77-.08,1.23-.23,1.4-.15.17-.59.25-1.32.25s-1.43-.34-2.08-1.02c-.65-.68-.98-1.39-.98-2.12,0-.17.2-.55.6-1.15.4-.6.6-.93.6-1Z"/>
      <path class="cls-6" d="M622.08,118.65c-.18-.68-.27-1.52-.27-2.52s.12-2.08.35-3.25c.6-2.83,1.05-4.68,1.35-5.55.1-.37-.06-.61-.48-.73-.42-.12-.91-.17-1.47-.15-.57.02-.9,0-1-.08l-.2-.3c0-.17-.06-.34-.17-.53-.12-.18-.08-.4.1-.65.18-.25.38-.39.58-.42.2-.03.54-.08,1.02-.15.48-.07.88-.13,1.18-.2,1-.2,1.7-.57,2.1-1.1.43-1.1.98-2.34,1.65-3.73.67-1.38,1.12-2.21,1.35-2.47.57-.3.98-.43,1.25-.38.27.05.57.34.9.88.37.33.48.72.35,1.15-.07.37-.87,2.02-2.4,4.95.4.07.93.07,1.6,0,1.07-.2,1.98-.25,2.75-.15,1.43,0,2.2.62,2.3,1.85.07.37,0,.58-.2.65-.2.07-1.5.14-3.9.23-2.4.08-3.62.19-3.65.33-.33.23-.9,1.83-1.7,4.8-.4,1.83-.62,3.5-.65,5-.03,1.5.17,2.53.6,3.1.3.3.88.37,1.73.2.85-.17,1.63-.55,2.35-1.15.72-.6,1.28-.74,1.7-.42.42.32.29.94-.38,1.88-.6.93-1.41,1.65-2.43,2.15-1.02.5-1.92.64-2.7.42-.78-.22-1.59-.69-2.43-1.42-.6-.8-.99-1.54-1.17-2.23Z"/>
      <path class="cls-6" d="M635.78,119.95c-.22-.22-.33-.43-.33-.65s-.08-.42-.25-.62c-.57-.57.33-3.02,2.7-7.35.2-.2.46-.55.77-1.05.32-.5.52-.78.62-.85,0-.13.05-.26.15-.38.1-.12.22-.17.35-.17v-.3c0-.3.55-1.03,1.65-2.2,2.93-3.07,5.2-3.97,6.8-2.7.2.27,1.58,1.53,4.15,3.8l-.9,2.5c-.73,2.17-.52,4.2.65,6.1.17.37.5.72,1,1.05.5.33,1,.53,1.5.6.73.13,1.1.52,1.1,1.15s-.3,1.02-.9,1.15c-2.23.3-4.13-1.07-5.7-4.1-.47-.63-.77-1.37-.9-2.2-.5.7-1.03,1.33-1.6,1.9-4.7,4.73-8.17,6.38-10.4,4.95-.1-.2-.26-.41-.48-.62ZM648.75,108.13c-.6-1.33-1.27-2-2-2s-1.85.88-3.35,2.62-2.87,3.81-4.1,6.17l-1.25,2.85c0,.37.43.34,1.27-.07.85-.42,1.56-.86,2.12-1.33,2.87-2.47,4.93-4.62,6.2-6.45l1.1-1.8Z"/>
      <path class="cls-6" d="M661,106.58c.17-.23.43-.29.8-.18.37.12.69.33.98.65.28.32.38.83.3,1.55-.08.72-.46,2.25-1.12,4.6-.67,2.35-.97,4.09-.9,5.22-.2,1.53-.35,2.32-.45,2.35-.57.23-1.07-.02-1.5-.77-.43-.75-.68-1.42-.75-2.02.13-1.27.23-2.17.3-2.7.27-1.23.69-2.92,1.27-5.07.58-2.15.94-3.36,1.08-3.62ZM662.95,97.5c.07-.48.25-.94.55-1.38.3-.43.61-.66.92-.67.32-.02.81.11,1.48.38.1.1.23.33.38.7.15.37.28.69.4.98.12.28.19.49.23.62.03.13.08.33.12.58.05.25.05.46,0,.62-.05.17-.11.35-.17.55-.13.37-.37.67-.7.9-.33.23-.7.22-1.1-.05-.33-.03-.77-.33-1.32-.88s-.83-.96-.85-1.23c-.02-.27,0-.64.08-1.12Z"/>
      <path class="cls-6" d="M673.55,103.58c.23,0,.49.15.77.45.28.3.49.65.62,1.05,0,1.07-.47,2.22-1.4,3.45-.83,1.27-1.4,2.63-1.7,4.1-.03.03-.17.34-.4.92-.23.58-.4.98-.5,1.18l-.25,1.1,3.35-3.45c2.33-2.33,4.03-3.69,5.1-4.08,1.07-.38,1.88.03,2.45,1.23.37.67.58,1.16.65,1.48.07.32.07,1.23,0,2.73v3.1c.1-.03.82-.28,2.15-.75.77-.33,1.62-.53,2.55-.6-.1.9-.6,1.82-1.5,2.77s-1.8,1.42-2.7,1.42c-.47,0-.96-.22-1.48-.65-.52-.43-.88-.91-1.07-1.42-.2-.52-.3-1.73-.3-3.62v-1.85c0-.5-.17-.65-.5-.45-.57.33-2.12,1.83-4.67,4.5-2.55,2.67-4.29,4-5.23,4-.27,0-.58-.18-.95-.55-.37-.37-.58-.68-.62-.95-.05-.27-.08-.88-.08-1.85,0-1.7.95-4.62,2.85-8.75l1.65-3.5c.1-.23.33-.57.7-1h.5Z"/>
      <path class="cls-6" d="M689.4,109.13l.85-.1c.47,0,.7.1.7.3.23.43.6.32,1.1-.35.17-.23.33-.52.5-.85.47-.73,1.16-1.51,2.07-2.33.92-.82,1.68-1.39,2.27-1.72,1.03-.47,1.98-.66,2.85-.58.87.08,1.75.61,2.65,1.58.57.43.88,1.1.93,2,.05.9-.11,1.68-.48,2.35-.13.5-.66,1.13-1.58,1.9-.92.77-1.76,1.3-2.52,1.6-.7.17-1.58.28-2.65.33-1.07.05-1.77,0-2.1-.17-.23-.13-.42.07-.55.62-.13.55-.24,1.32-.33,2.3-.08.98-.06,1.58.08,1.8.13.22.27.38.4.48,1.17,1.2,2.4,1.27,3.7.2.4-.37.84-.8,1.32-1.3.48-.5.84-.85,1.08-1.05.27-.47.83-.58,1.7-.35.33.3.49.58.48.85-.02.27-.15.65-.4,1.15s-.7,1.04-1.35,1.62c-.65.58-1.23,1.04-1.73,1.38-1.77.93-3.53,1.07-5.3.4-1.3-.53-2.14-1.27-2.52-2.22-.38-.95-.49-2.18-.33-3.68.17-1.5.23-2.43.2-2.8-.03-.37-.14-.63-.33-.8-.18-.17-.36-.33-.52-.5-.37-.37-.57-.66-.6-.88-.03-.22,0-.47.08-.75.08-.28.19-.42.32-.42ZM700.4,106.43c-.5-.57-1.25-.48-2.25.25-.33.1-.82.47-1.47,1.1-.65.63-1.21,1.26-1.68,1.88-.47.62-.62.98-.45,1.08-.03.07,0,.12.12.15.12.03.27.06.45.08.18.02.36.03.52.05.17.02.33.02.48,0,.15-.02.48-.07,1-.15.52-.08.84-.15.98-.2.13-.05.37-.17.7-.38.4-.23.98-.9,1.75-2,.23-.9.18-1.52-.15-1.85Z"/>
      <path class="cls-6" d="M301.56,158.33c-.83.2-1.4-.17-1.7-1.1-.6-1.7-.82-3.35-.65-4.95l.1-1.05-1.95,1.55c-2.1,1.87-4.12,2.8-6.05,2.8-2.83-.5-3.62-2.73-2.35-6.7.7-2.07,1.67-3.78,2.9-5.15,2.17-3.23,4.6-4.07,7.3-2.5.83.4,1.37.57,1.6.5.23-.07.48-.65.75-1.75.9-3.83,2.48-8.15,4.75-12.95.53-1.17,1.1-1.72,1.7-1.65.73,0,1.3.5,1.7,1.5.23.53.18,1.08-.15,1.65-.87,1.5-1.93,3.95-3.2,7.35-1.27,3.4-2.17,6.08-2.7,8.02-.53,1.95-.92,4.29-1.15,7.02-.23,2.73-.25,4.51-.05,5.33.2.82.25,1.35.15,1.6-.1.25-.43.41-1,.48ZM293.11,152.78c1-.23,2.4-1.1,4.2-2.6.1-.07.3-.22.6-.45.3-.23.5-.42.6-.55.1-.13.25-.32.45-.57.2-.25.35-.48.45-.68.9-1.77.73-3.18-.5-4.25-.33-.33-.88-.45-1.62-.35-.75.1-1.46.47-2.12,1.1-2,1.8-3.33,4.3-4,7.5-.13.87.52,1.15,1.95.85Z"/>
      <path class="cls-6" d="M316.83,153.1c.08-.05.13-.08.15-.08.02,0,.05-.02.1-.05.05-.03.08-.07.08-.1.23-.2.52-.48.88-.83.35-.35.61-.52.77-.52s.34.08.52.25c.18.17.31.27.38.3.53,0,.46.43-.22,1.3-.68.87-1.53,1.62-2.53,2.25-1.07.93-2.32,1.27-3.77,1.02-1.45-.25-2.61-.98-3.48-2.17-1.03-1.3-1.42-3.38-1.15-6.25.13-1.87.93-3.77,2.4-5.73s3.02-3.24,4.65-3.88c.47-.3.9-.46,1.3-.48.4-.02,1.08.04,2.02.18.95.13,1.69.53,2.23,1.2.83.83,1.25,1.8,1.25,2.9-.13.8-.65,1.72-1.55,2.75-.9,1.03-1.98,1.87-3.25,2.5-1.87.57-3.38.45-4.55-.35-.6-.23-1.01-.18-1.23.15-.22.33-.41,1.17-.57,2.5-.27,2.3.28,3.57,1.65,3.8.13.03.33.08.6.12.27.05.44.08.52.1.08.02.23.03.42.05.2.02.37,0,.5-.02.27-.07.53-.17.78-.32.25-.15.44-.26.57-.33.27-.13.44-.23.52-.27ZM316.91,145.03c.57-.23,1.14-.65,1.73-1.25.58-.6.88-1.12.88-1.57s-.23-.82-.7-1.1c-.47-.28-1.02-.34-1.65-.18-.63.17-1.28.55-1.95,1.15-.67.6-1.22,1.19-1.65,1.77-.43.58-.6.92-.5,1.02.13.27.67.42,1.6.45.93.03,1.68-.07,2.25-.3Z"/>
      <path class="cls-6" d="M347.36,126.45c.2.52.3.92.3,1.22s-.07.56-.23.78c-.15.22-.49.82-1.02,1.82-.43,1.6-.8,2.73-1.1,3.4-.3.67-.49,1.13-.57,1.4-.08.27-.33.92-.73,1.95-.4,1.03-.86,2.4-1.38,4.1-.52,1.7-.9,2.76-1.15,3.17-.25.42-.52,1.48-.83,3.18-.5,1.5-.75,2.38-.75,2.65-.1.33-.23.99-.4,1.98-.17.98-.35,1.67-.55,2.07-.1,1.1-.65,1.38-1.65.85-.67-.37-1-.87-1-1.5s.2-1.68.6-3.15c.2-1.63.52-2.82.95-3.55,1.37-4.63,2.1-7.18,2.2-7.65.3-.87.72-2.01,1.25-3.42.53-1.42.89-2.39,1.08-2.92.18-.53.47-1.48.85-2.85.38-1.37.71-2.27.98-2.7.5-.77.83-1.32,1-1.65.03-.2.24-.28.62-.25.38.03.67.17.88.4.23-.07.45.16.65.68Z"/>
      <path class="cls-6" d="M351.75,124.38c.6-.37,1.04-.57,1.33-.6.28-.03.73.08,1.33.35,1.13.73,1.55,1.53,1.25,2.4-.13.9-.35,1.76-.65,2.58-.3.82-.48,1.32-.55,1.52-.3,1.07-1.15,2.4-2.55,4,0,.13-.16.23-.48.3-.32.07-.56.13-.73.2-.47.03-.85-.08-1.15-.35-.07-.3.32-1.11,1.15-2.42.83-1.32,1.42-2.44,1.75-3.38,0-.13.02-.25.05-.35-.57.1-1.15-.1-1.75-.6-1.2-1.17-.87-2.38,1-3.65Z"/>
      <path class="cls-6" d="M360.6,137.53c1.97,0,3.4.48,4.3,1.43.9.95,1.35,1.84,1.35,2.67v.4c0,.7-.47,1.85-1.4,3.45-.47.83-1.18,1.57-2.15,2.23-.97.65-1.93.99-2.9,1.02-.97.03-1.89-.02-2.77-.18-.88-.15-1.43-.22-1.62-.22s-.38.12-.55.35c-.23.37-.35,1.05-.35,2.05.1.93.36,1.58.77,1.95.42.37.92.55,1.52.55s1.17-.12,1.7-.35c.53-.23,1.16-.65,1.88-1.25.72-.6,1.27-.9,1.67-.9s.8.2,1.2.6.62.78.65,1.15c-.1.77-.88,1.77-2.33,3.02-1.45,1.25-3.09,1.88-4.92,1.88s-3.33-.53-4.5-1.6c-1.17-1.07-1.75-2.58-1.75-4.55,0-.77.04-1.58.12-2.45.08-.87.38-1.93.88-3.2.5-1.27,1.3-2.63,2.4-4.1,1.1-1.47,2.28-2.49,3.55-3.08,1.27-.58,2.35-.88,3.25-.88ZM360.25,141.18c-.43,0-1.06.36-1.88,1.08-.82.72-1.53,1.54-2.12,2.48.07.4.62.6,1.65.6s1.69-.08,1.98-.23c.28-.15.77-.57,1.45-1.25s1.04-1.16,1.08-1.43c0-.73-.53-1.15-1.6-1.25h-.55ZM361.45,133.48l.05-.5c.07-.3.78-1.18,2.15-2.65,1.37-1.47,2.28-2.28,2.75-2.45.27-.13.52-.23.75-.3.43,0,.86.23,1.27.7.42.47.62,1.08.62,1.85,0,.47-.73,1.29-2.17,2.48-1.45,1.18-2.34,2.02-2.68,2.52-.33.5-.75.75-1.25.75-1,0-1.5-.8-1.5-2.4Z"/>
      <path class="cls-6" d="M380.88,145.13c-.38.6-.73.9-1.05.9s-.48.09-.48.27-.17.28-.52.3c-.35.02-.72-.06-1.1-.23-.38-.17-.61-.37-.67-.6,0-.17.12-.77.35-1.82.23-1.05.26-1.73.07-2.05-.18-.32-.59-.34-1.22-.07-1.23.7-2.16,1.61-2.78,2.72-.62,1.12-1.15,2.53-1.6,4.25-.45,1.72-.66,2.78-.62,3.18.07.63.22,1.02.45,1.15,1,.27,1.88.2,2.65-.2.77-.4,1.78-1.08,3.05-2.05.07-.03.21-.22.42-.55.22-.33.43-.55.62-.65.27-.43.67-.65,1.2-.65h1.05c.6.2,1.08.6,1.45,1.2.13.3.13.5,0,.6l-.25.25c.13.27-.45,1.06-1.75,2.38-1.3,1.32-2.13,1.97-2.5,1.97s-.55.1-.55.3c0,.13-.51.44-1.52.92-1.02.48-1.84.79-2.48.93-1.53.27-2.94-.05-4.22-.95-1.28-.9-1.93-2.12-1.93-3.65-.17-1.53.11-3.45.83-5.75.72-2.3,1.64-4.15,2.77-5.55,1.7-2.03,3.02-3.24,3.95-3.62.93-.38,1.93-.57,3-.57,1.83.43,2.75,1,2.75,1.7l.25.25c.3,0,.63.52,1,1.55.37,1.03.42,1.8.15,2.3-.13.63-.39,1.25-.77,1.85Z"/>
      <path class="cls-6" d="M390.15,141.08c1.67-1.43,3.17-2.3,4.5-2.6,2-.47,3.4-.28,4.2.55,1.3.57,2.05,1.75,2.25,3.55.27,2.77-.65,5.67-2.75,8.7-1.23,1.8-2.93,3.35-5.1,4.65-.87.6-2.4.97-4.6,1.1-.57,0-1.22-.32-1.95-.95-1.5-1.57-2.15-2.95-1.95-4.15l.1-1.15c-.17-.17-.21-.3-.12-.4.08-.1.14-.17.17-.2.2,0,.27-.16.2-.47-.07-.32.05-.93.35-1.83.3-.9.68-1.73,1.15-2.5,1.13-1.87,2.32-3.3,3.55-4.3ZM395.83,147.6c.05-.12.14-.37.27-.75.13-.38.26-.68.38-.88.12-.2.18-.71.2-1.52.02-.82-.11-1.31-.38-1.48-.37-.17-.67-.22-.9-.15-.23.07-.62.28-1.15.65-2.53,2.13-4.05,4.42-4.55,6.85-.1.83,0,1.46.27,1.88.28.42.76.52,1.42.32.67-.2,1.27-.56,1.8-1.07.53-.52.88-.86,1.05-1.03.17-.17.31-.32.42-.45.12-.13.23-.33.35-.58.12-.25.21-.43.27-.55.07-.12.16-.33.28-.62.12-.3.2-.51.25-.62Z"/>
      <path class="cls-6" d="M417.2,141.48l1.25-.4c.5,0,1.02.17,1.57.52.55.35.83.71.83,1.07,0,.1.1.23.3.4.6.63.9,1.37.9,2.2s-.26,2.33-.78,4.48c-.52,2.15-.78,3.48-.8,3.98-.02.5.05.95.2,1.35.15.4.22.69.22.88s-.15.43-.45.75c-.3.32-.77.47-1.43.47s-1.27-.36-1.88-1.07c-.6-.72-.9-1.62-.9-2.7s.37-2.99,1.1-5.73c.03-.2.07-.38.1-.52.03-.15.06-.27.07-.35.02-.08.03-.16.05-.22.02-.07.02-.16.02-.28s-.07-.17-.2-.17-.34.08-.62.25c-.28.17-.55.35-.8.55-.25.2-.6.49-1.05.88-.45.38-.84.69-1.18.93-.33.23-1.03.8-2.1,1.7-2.73,2.37-4.22,3.55-4.47,3.55s-.75-.23-1.5-.7c-.75-.47-1.12-.98-1.12-1.52s.3-1.73.9-3.52c.6-1.8,1.32-3.57,2.15-5.3.1-.2.22-.82.35-1.85.27-1.6.75-2.4,1.45-2.4s1.34.33,1.93,1c.58.67.88,1.34.88,2.03s-.16,1.48-.48,2.4c-.32.92-.54,1.46-.67,1.62.07-.03.17-.12.3-.25.33-.33.87-.73,1.6-1.2,1.03-.77,1.9-1.37,2.6-1.8l1.65-1Z"/>
      <path class="cls-6" d="M440.6,140.83c.27-.13.68-.13,1.23,0,.55.13.83.3.83.5s.06.43.17.7c.12.27.23.4.33.4.33.03.37.3.1.8-.27.5-.63.92-1.1,1.25-.83.53-1.27.86-1.3.98-.03.12-.02.29.05.52.43,1.03.14,2.4-.88,4.1-1.02,1.7-2.4,3.23-4.15,4.6-1.75,1.37-3.36,2.13-4.83,2.3-.77.27-1.65-.05-2.65-.95-.77-.37-1.43-.98-2-1.85-.57-.87-.82-1.55-.75-2.05.23-2.53,1.12-5.19,2.67-7.98,1.55-2.78,3.33-4.62,5.33-5.52.67-.3,1.38-.4,2.15-.3.77.1,1.28.42,1.55.95.5.97.38,1.58-.35,1.85-.37,0-.55.15-.55.45.23.1.92.07,2.05-.1,1.13-.17,1.83-.38,2.1-.65ZM436.05,144.98l-.85.25c-.13,0-.32-.08-.55-.25l-.8-1-.85.85c-.77.77-1.41,1.8-1.93,3.1-.52,1.3-.81,2.33-.88,3.1-.07.77,0,1.24.18,1.43.18.18.42.28.7.3.28.02.83-.17,1.62-.58.43-.43.73-.67.9-.72.17-.05.27-.09.3-.12.03-.03.08-.11.15-.23.07-.12.13-.26.2-.43.13-.37.57-1.02,1.3-1.95.67-.73,1.09-1.33,1.27-1.77.18-.45.24-.83.18-1.12-.07-.3-.14-.48-.23-.53-.08-.05-.2-.1-.35-.15-.15-.05-.27-.11-.38-.17Z"/>
      <path class="cls-6" d="M468.65,155.58c-.8,0-1.69-.19-2.67-.58-.98-.38-1.48-.94-1.48-1.67v-3.1c0-1.33-.12-2.1-.35-2.3-.5-.27-1.17.11-2,1.12-.83,1.02-1.82,2.46-2.95,4.33-1.13,1.87-2.07,2.55-2.8,2.05-1.27-.4-1.75-1.2-1.45-2.4.87-2.83,1.47-5.07,1.8-6.7-.27-.43-.82-.37-1.65.2-.1.07-.26.17-.48.3-.22.13-.4.25-.55.35-.15.1-.32.23-.52.4-.37.37-1.21,1.56-2.52,3.57-1.32,2.02-2.16,3.18-2.52,3.48-.23.6-.45.98-.65,1.12-.2.15-.48.14-.85-.02-1.4-.6-2.1-1.64-2.1-3.12s.48-3.93,1.45-7.33c.57-1.03.85-2,.85-2.9.1-.63.3-1.49.6-2.58.3-1.08.52-1.67.65-1.77.23-.27.72-.36,1.45-.27.73.08,1.2.34,1.4.77.87.9.92,2.43.15,4.6-.4.83-.82,1.95-1.25,3.35.4-.7,1.47-2,3.2-3.9.6-.67,1.27-1.18,2.02-1.55.75-.37,1.36-.55,1.83-.55.8.13,1.48.52,2.02,1.17s.89,1.54,1.02,2.68l-.25,2.6c.77-1.03,1.78-2.12,3.05-3.25,1.4-1.07,2.55-1.13,3.45-.2.83.47,1.46,1.28,1.88,2.45.42,1.17.56,2.38.43,3.65-.13,1.27,0,2.52.4,3.75.33.6.39,1.12.17,1.57-.22.45-.48.68-.77.68Z"/>
      <path class="cls-6" d="M472.9,155.13l-.25-1c-.8-.4-1.08-.95-.85-1.65.47-.8,1.31-2.64,2.52-5.52,1.22-2.88,1.89-4.54,2.02-4.98,0-.73.23-1.25.7-1.55.63-.47,1.3-.3,2,.5.7.8,1.05,1.83,1.05,3.1,0,.4-.38,1.54-1.12,3.43-.75,1.88-1.49,3.57-2.23,5.05-.73,1.48-1.23,2.39-1.48,2.73-.25.33-.54.5-.88.5l-1.5-.6ZM479.4,129.83c.57,0,1.18.17,1.85.5.17.4.6,1.05,1.3,1.95.7.9,1.05,1.62,1.05,2.15,0,1.43-.8,2.15-2.4,2.15-.67,0-1.43-.4-2.27-1.2-.85-.8-1.28-1.65-1.28-2.55,0-.17.29-.69.88-1.58.58-.88.88-1.36.88-1.42Z"/>
      <path class="cls-6" d="M492.65,137.53c1.97,0,3.4.48,4.3,1.43.9.95,1.35,1.84,1.35,2.67v.4c0,.7-.47,1.85-1.4,3.45-.47.83-1.18,1.57-2.15,2.23-.97.65-1.93.99-2.9,1.02-.97.03-1.89-.02-2.78-.18-.88-.15-1.42-.22-1.62-.22s-.38.12-.55.35c-.23.37-.35,1.05-.35,2.05.1.93.36,1.58.77,1.95.42.37.93.55,1.53.55s1.17-.12,1.7-.35c.53-.23,1.16-.65,1.88-1.25.72-.6,1.27-.9,1.68-.9s.8.2,1.2.6c.4.4.62.78.65,1.15-.1.77-.88,1.77-2.32,3.02-1.45,1.25-3.09,1.88-4.93,1.88s-3.33-.53-4.5-1.6c-1.17-1.07-1.75-2.58-1.75-4.55,0-.77.04-1.58.12-2.45.08-.87.38-1.93.88-3.2.5-1.27,1.3-2.63,2.4-4.1,1.1-1.47,2.28-2.49,3.55-3.08,1.27-.58,2.35-.88,3.25-.88ZM492.3,141.18c-.43,0-1.06.36-1.88,1.08-.82.72-1.52,1.54-2.12,2.48.07.4.62.6,1.65.6s1.69-.08,1.98-.23c.28-.15.77-.57,1.45-1.25.68-.68,1.04-1.16,1.07-1.43,0-.73-.53-1.15-1.6-1.25h-.55Z"/>
      <path class="cls-6" d="M521.6,136.58c.5-.23,1.15-.35,1.95-.35s1.32.07,1.55.2c.2-.07.33-.1.4-.1.4,0,.92.33,1.55,1,.63.67,1.03,1.2,1.2,1.6,0,2.43-.2,3.65-.6,3.65-.17,0-.25.1-.25.3,0,.47-.41.98-1.23,1.55-.82.57-1.56.85-2.23.85-.37-.1-.73-.32-1.1-.67-.37-.35-.55-.71-.55-1.08,0-.03.34-.45,1.02-1.25.68-.8,1.02-1.52,1.02-2.15,0-.27-.28-.4-.85-.4-1.83.83-3.15,1.62-3.95,2.35-.2.4-.4.6-.6.6,0-.03-.02-.05-.08-.05s-.24.17-.57.5c-.33.33-.68.77-1.02,1.33-.35.55-.56,1.04-.62,1.47l-.1.15v.25c-.03.07-.05.2-.05.4,0,.53.71,1.32,2.12,2.38,1.42,1.05,2.4,1.85,2.95,2.4s.89,1.04,1.02,1.48c.3.6.45,1.13.45,1.6,0,1.13-.59,2.01-1.77,2.62-1.18.62-2.59.92-4.23.92s-3.05-.35-4.25-1.05c-1.2-.7-1.81-1.31-1.83-1.83-.02-.52.16-.83.52-.92.33-.27.8-.33,1.4-.2.7.13,1.57.27,2.6.4.67,0,1.29-.07,1.88-.2.58-.13.88-.27.88-.4s-.13-.32-.4-.55c-.27-.23-.55-.35-.85-.35,0-.13-.66-.69-1.97-1.67-1.32-.98-1.98-1.62-1.98-1.93,0-.03.02-.07.05-.1v-.25c-.23,0-.45-.32-.65-.95-.2-.63-.3-1.25-.3-1.85,0-1.73,1.04-3.62,3.12-5.67,2.08-2.05,4.19-3.39,6.32-4.02Z"/>
      <path class="cls-6" d="M543.25,140.83c.27-.13.68-.13,1.23,0,.55.13.83.3.83.5s.06.43.17.7c.12.27.23.4.33.4.33.03.37.3.1.8-.27.5-.63.92-1.1,1.25-.83.53-1.27.86-1.3.98-.03.12-.02.29.05.52.43,1.03.14,2.4-.88,4.1-1.02,1.7-2.4,3.23-4.15,4.6-1.75,1.37-3.36,2.13-4.83,2.3-.77.27-1.65-.05-2.65-.95-.77-.37-1.43-.98-2-1.85-.57-.87-.82-1.55-.75-2.05.23-2.53,1.12-5.19,2.67-7.98,1.55-2.78,3.33-4.62,5.33-5.52.67-.3,1.38-.4,2.15-.3.77.1,1.28.42,1.55.95.5.97.38,1.58-.35,1.85-.37,0-.55.15-.55.45.23.1.92.07,2.05-.1,1.13-.17,1.83-.38,2.1-.65ZM538.7,144.98l-.85.25c-.13,0-.32-.08-.55-.25l-.8-1-.85.85c-.77.77-1.41,1.8-1.93,3.1-.52,1.3-.81,2.33-.88,3.1-.07.77,0,1.24.18,1.43.18.18.42.28.7.3.28.02.83-.17,1.62-.58.43-.43.73-.67.9-.72.17-.05.27-.09.3-.12.03-.03.08-.11.15-.23.07-.12.13-.26.2-.43.13-.37.57-1.02,1.3-1.95.67-.73,1.09-1.33,1.27-1.77.18-.45.24-.83.18-1.12-.07-.3-.14-.48-.23-.53-.08-.05-.2-.1-.35-.15-.15-.05-.27-.11-.38-.17Z"/>
      <path class="cls-6" d="M551.75,139.63c1.07-1.33,2.22-1.73,3.45-1.2.37.43.56,1.03.58,1.78.02.75-.18,1.44-.58,2.07-1.4,1.87-2.3,4.2-2.7,7-.43,1.53-.3,2.38.4,2.55.93.23,1.92-.26,2.95-1.48,1.03-1.22,1.95-2.88,2.75-4.98.13-.33.28-.88.45-1.62.17-.75.3-1.23.4-1.42.23-.9.73-1.57,1.5-2,.77-.43,1.35-.48,1.75-.15,1,.43,1.45,1.18,1.35,2.25,0,1.13-.32,2.29-.95,3.48-.63,1.18-1.12,2.18-1.45,2.98-.33.8-1.1,1.91-2.3,3.33-1.2,1.42-2.23,2.31-3.1,2.67-1.87,1.17-3.77,1.42-5.7.75-.57-.53-.97-.93-1.2-1.2-.73-.77-1.19-1.83-1.38-3.2-.18-1.37.18-3.42,1.08-6.15.9-2.73,1.8-4.55,2.7-5.45Z"/>
      <path class="cls-6" d="M566.65,142.08c-.13,0-.2-.25-.2-.75v-.25c0-.1-.07-.2-.23-.3-.15-.1-.27-.21-.35-.32-.08-.12,0-.36.27-.73.27-.37.51-.57.73-.6.22-.03.58-.08,1.1-.15.52-.07.98-.13,1.38-.2,1.1-.2,1.87-.57,2.3-1.1,1.27-3.27,2.18-5.22,2.75-5.85,1.43-.73,2.48-.57,3.15.5.07.1.17.22.33.38s.22.26.22.32-.03.25-.1.55c-.07.3-.78,1.77-2.15,4.4.4.07.93.07,1.6,0,.93-.2,1.72-.25,2.35-.15,1.4,0,2.17.77,2.3,2.3.17.9-.58,1.35-2.25,1.35-3.43.13-5.17.28-5.2.45-.17.1-.43.62-.8,1.55-.37.93-.67,1.82-.9,2.65-.9,4.17-.88,6.75.05,7.75.5.5,1.53.12,3.1-1.15.57-.47,1.09-.62,1.58-.45.48.17.75.52.8,1.08.05.55-.11,1.14-.47,1.77-.6.9-1.53,1.62-2.8,2.15-1.27.53-2.29.68-3.07.45-.78-.23-1.76-.87-2.93-1.9-.53-.7-.86-1.33-.98-1.9-.12-.57-.17-1.27-.17-2.1v-1.45c0-.77.52-3.22,1.55-7.35.1-.37-.06-.61-.47-.73-.42-.12-.91-.17-1.48-.15-.57.02-.9,0-1-.07Z"/>
      <path class="cls-6" d="M592.1,137.53c1.97,0,3.4.48,4.3,1.43.9.95,1.35,1.84,1.35,2.67v.4c0,.7-.47,1.85-1.4,3.45-.47.83-1.18,1.57-2.15,2.23-.97.65-1.93.99-2.9,1.02-.97.03-1.89-.02-2.78-.18-.88-.15-1.42-.22-1.62-.22s-.38.12-.55.35c-.23.37-.35,1.05-.35,2.05.1.93.36,1.58.77,1.95.42.37.93.55,1.53.55s1.17-.12,1.7-.35c.53-.23,1.16-.65,1.88-1.25.72-.6,1.27-.9,1.68-.9s.8.2,1.2.6c.4.4.62.78.65,1.15-.1.77-.88,1.77-2.32,3.02-1.45,1.25-3.09,1.88-4.93,1.88s-3.33-.53-4.5-1.6c-1.17-1.07-1.75-2.58-1.75-4.55,0-.77.04-1.58.12-2.45.08-.87.38-1.93.88-3.2.5-1.27,1.3-2.63,2.4-4.1,1.1-1.47,2.28-2.49,3.55-3.08,1.27-.58,2.35-.88,3.25-.88ZM591.75,141.18c-.43,0-1.06.36-1.88,1.08-.82.72-1.52,1.54-2.12,2.48.07.4.62.6,1.65.6s1.69-.08,1.98-.23c.28-.15.77-.57,1.45-1.25.68-.68,1.04-1.16,1.07-1.43,0-.73-.53-1.15-1.6-1.25h-.55Z"/>
      <path class="cls-6" d="M603.95,148.93s.75-.7,2.15-2.1c2.63-2.63,4.67-3.98,6.1-4.05.73,0,1.38.38,1.95,1.15.57.77.85,1.68.85,2.75,0,.2-.03.77-.1,1.7v2.85c.5-.13,1-.28,1.5-.45.97-.33,1.92-.55,2.85-.65-.1.93-.71,2.12-1.83,3.58-1.12,1.45-2.19,2.17-3.23,2.17-1.13,0-2.05-.7-2.75-2.1-.4-1.13-.6-2.23-.6-3.3v-2.2c0-.37-.03-.55-.1-.55-.27,0-1.66,1.32-4.18,3.98-2.52,2.65-4.24,3.97-5.17,3.97-.13,0-.45-.12-.95-.38s-.82-.44-.95-.57c-.37-.37-.55-1.4-.55-3.1s.95-4.6,2.85-8.7c.2-.33.48-.92.85-1.75.77-1.73,1.47-2.92,2.1-3.55.27,0,.53.02.8.05.27.03.69.23,1.27.6.58.37.94.85,1.08,1.45,0,1.27-.47,2.53-1.4,3.8-.37.5-.85,1.58-1.45,3.25-.1.1-.31.47-.62,1.1-.32.63-.48.98-.48,1.05Z"/>
      <path class="cls-6" d="M640.1,153c-.37.75-.96,1.39-1.77,1.92-.82.53-1.54.8-2.18.8s-1.2-.3-1.7-.9c-.6-.67-1.12-1.83-1.55-3.5l-1.8,1.65c-.23.27-.52.57-.85.9-.7.63-1.1,1.03-1.2,1.2-.23.43-1.18.97-2.85,1.6-.43.13-.98.15-1.65.05-.67-.1-1-.23-1-.38s0-.23-.02-.25c-.02-.02-.09-.02-.23-.02-.63-.53-1.15-.88-1.55-1.05-.37-.53-.57-1.07-.6-1.6-.03-.53.17-1.63.6-3.3.03-1.93.99-4.14,2.88-6.62,1.88-2.48,3.67-4.23,5.38-5.23.47-.47,1.09-.72,1.88-.75.78-.03,1.43.1,1.95.4.52.3,1.1.88,1.75,1.75.65.87,1.14,1.65,1.47,2.35,0,.03.08.36.25.98.17.62.23.96.18,1.02-.05.07-.08.67-.08,1.8-.4,1.37-.6,2.6-.6,3.7-.07.63,0,1.08.23,1.35.22.27.6.27,1.15,0,.55-.27,1.1-.17,1.65.3.55.47.64,1.08.27,1.83ZM625.75,151.18c0,1.17.6,1.4,1.8.7.77-.47,1.37-.97,1.8-1.5.57-.77,1.3-1.82,2.2-3.15,1-1.33,1.6-2.45,1.8-3.35-.37-1.13-.78-1.75-1.25-1.85-.93,0-2.2,1.1-3.8,3.3-.87,1.03-1.51,2.2-1.92,3.5-.42,1.3-.62,2.08-.62,2.35Z"/>
      <path class="cls-6" d="M645.85,139.88l.55-1.7c.17-.13.48-.86.93-2.17.45-1.32.86-2.39,1.22-3.23,1.23-2.7,2.08-4.7,2.55-6,.2-.3.43-.68.7-1.15.57-.97.93-1.5,1.1-1.6.23-.07.74.1,1.52.5s1.29.78,1.53,1.15c.2.2.24.5.12.9-.12.4-.41,1.07-.88,2-.47.93-.75,1.51-.85,1.72-.1.22-.25.53-.45.95-.2.42-.55,1.17-1.05,2.25-.5,1.08-1.02,2.32-1.58,3.7-.55,1.38-1.03,2.69-1.45,3.92-.42,1.23-.71,2.07-.88,2.5l-.25,1.1,1.3-1.45c1.2-1.2,2.35-2.03,3.45-2.5,1.9-.83,3.5-1.25,4.8-1.25s2.47.88,3.5,2.65c.37.73.5,1.63.4,2.7-.1,1.07-.38,1.98-.85,2.75-.5.37-.77.75-.8,1.15-.03.4-.88,1.52-2.55,3.35-.87.9-2.01,1.8-3.43,2.7-1.42.9-2.39,1.44-2.92,1.62-.53.18-.97.29-1.3.32-.83.13-1.37.23-1.6.3-1.23-.13-2.05-.67-2.45-1.6-.4-.43-.57-.82-.5-1.15.4,0,.63-.07.7-.2,0-.2.18-.27.55-.2,1.73.13,4.62-1.67,8.65-5.4,1.23-1.6,1.97-2.67,2.2-3.2.23-.53.22-1-.05-1.4-.4-.77-1.48-.57-3.25.6-2.53,1.57-4.48,3.27-5.85,5.1l-2,2.45c0,.13-.19.3-.58.5-.38.2-.71.3-.98.3-.53-.23-.85-.6-.95-1.1-.4-.27-.62-.42-.68-.48s-.14-.22-.27-.52c-.2-.47-.07-1.5.4-3.1.83-3.9,1.43-6,1.8-6.3.27-.47.4-.97.4-1.5Z"/>
      <path class="cls-6" d="M664.05,154.18c0-1.07.2-2.33.6-3.8.2-1.63.52-2.82.95-3.55,1.37-4.63,2.1-7.18,2.2-7.65.3-.87.72-2.01,1.25-3.42.53-1.42.89-2.39,1.07-2.92.18-.53.47-1.48.85-2.85.38-1.37.71-2.27.98-2.7.5-.77.83-1.32,1-1.65.03-.2.37-.35,1-.45.63-.1,1.05-.05,1.25.15.17-.07.46.21.88.82.42.62.62,1.1.6,1.45-.02.35-.1.63-.25.85s-.49.82-1.02,1.82c-.43,1.6-.8,2.73-1.1,3.4-.3.67-.49,1.13-.58,1.4-.08.27-.32.92-.73,1.95-.4,1.03-.86,2.4-1.38,4.1-.52,1.7-.9,2.76-1.15,3.17-.25.42-.52,1.48-.82,3.18-.5,1.5-.75,2.38-.75,2.65-.1.33-.23.99-.4,1.98-.17.98-.35,1.67-.55,2.07-.07.6-.32,1.16-.75,1.68-.43.52-.92.62-1.45.32-1.13-.63-1.7-1.3-1.7-2Z"/>
      <path class="cls-6" d="M680.57,149.08c-.95,0-1.58-.08-1.88-.25-.37-.2-.63.05-.8.75l-.15,1.1c-.13.87.08,1.6.65,2.2.27.33.68.48,1.25.42.57-.05,1.07-.24,1.5-.57.43-.33.9-.77,1.4-1.3.5-.53.87-.88,1.1-1.05.33-.6,1.17-.72,2.5-.35.73.53.63,1.63-.3,3.3-.17.33-.67.9-1.52,1.7-.85.8-1.52,1.35-2.02,1.65-1.73.9-3.6.98-5.6.25-2.5-1-3.53-3.47-3.1-7.4.07-.97.04-1.64-.08-2.02-.12-.38-.28-.67-.5-.85-.22-.18-.44-.38-.67-.57-.53-.5-.81-.85-.83-1.05-.02-.2.04-.48.18-.82.13-.35.25-.56.35-.62.77-.33,1.21-.49,1.32-.48.12.02.32.11.6.27.28.17.42.32.42.45.17.33.53-.02,1.1-1.05.13-.27.28-.57.45-.9.47-.7,1.1-1.39,1.9-2.08.8-.68,1.44-1.15,1.92-1.4.48-.25,1.18-.47,2.08-.65.9-.18,1.53-.26,1.9-.23,1.1.1,2.25.78,3.45,2.05.6.43.95,1.21,1.05,2.32.1,1.12-.03,2.01-.4,2.68-.13.5-.79,1.26-1.98,2.27-1.18,1.02-2.14,1.67-2.88,1.98-.67.17-1.48.25-2.42.25ZM684,141.83c-.43-.43-1.07-.35-1.9.25-.33.1-.79.4-1.38.9-.58.5-1.08,1-1.48,1.5s-.52.8-.35.9c-.03.07,0,.12.12.15.12.03.27.06.45.08.18.02.36.03.52.05.17.02.48-.02.93-.12.45-.1.9-.29,1.35-.57.45-.28.98-.84,1.58-1.68.27-.8.32-1.28.15-1.45Z"/>
      <text class="cls-3"><tspan class="cls-8"><tspan x="311.65" y="189.14">Retrouvez nos indicateurs pour suivre </tspan></tspan><tspan class="cls-8" x="275.96" y="205.94">la contribution des </tspan><tspan class="cls-7" x="408.13" y="205.94">activités économiques </tspan><tspan class="cls-8" x="575.56" y="205.94">du territoire </tspan><tspan class="cls-8" x="302.94" y="222.74">métropolitain aux </tspan><tspan class="cls-7" x="427.1" y="222.74">transitions écologiques et sociales</tspan></text>
    </g>
  </g>
</svg>